#!OML:ASF E:\Steps\Project 1\Capture day 1\Session 2\Subject.ASF
:FULLY-SPECIFIED
:DEGREES
343
root -0.76182 17.7952 20.1044 -157.425 4.25537 183.969
lowerback -21.1199 -3.90205 -8.73647
upperback 1.11407 -2.73428 -0.316124
thorax 13.6417 -1.79146 3.74545
lowerneck -2.9678 0.575837 -3.33804
upperneck 8.25714 0.901511 2.86586
head 3.15016 0.514019 1.55592
rclavicle -6.75868e-015 3.18055e-015
rhumerus -40.8284 -9.98877 -80.0041
rradius 42.7268
rwrist -9.89922
rhand -9.9573 -52.0888
rfingers 7.12502
rthumb 16.0248 -441.446
lclavicle -6.75868e-015 3.18055e-015
lhumerus -31.6068 -1.02433 66.1958
lradius 27.4882
lwrist -1.67862
lhand -21.6301 -13.4848
lfingers 7.12502
lthumb 4.76599 16.4416
rfemur -52.2834 -6.76978 22.9472
rtibia 56.4136
rfoot -27.9463 -8.58718
rtoes -37.6777
lfemur -26.2292 -10.8328 -15.6471
ltibia 27.6305
lfoot -20.8831 6.01066
ltoes -34.3057
344
root -0.740605 17.791 20.0735 -157.555 4.12323 184.205
lowerback -21.1661 -3.96511 -8.76992
upperback 1.13563 -2.81323 -0.262406
thorax 13.7103 -1.83627 3.79636
lowerneck -2.93022 0.650342 -3.44553
upperneck 8.39714 0.989607 3.184
head 3.1886 0.569495 1.68567
rclavicle 2.26615e-014 9.22361e-014
rhumerus -40.8886 -10.0501 -79.8476
rradius 42.5157
rwrist -9.92954
rhand -9.76479 -51.5109
rfingers 7.12502
rthumb 16.2101 -440.853
lclavicle 2.26615e-014 9.22361e-014
lhumerus -31.5961 -1.24187 66.04
lradius 27.669
lwrist -1.3433
lhand -21.5913 -13.4144
lfingers 7.12502
lthumb 4.80337 16.5111
rfemur -52.885 -6.9532 22.4526
rtibia 56.2092
rfoot -27.8665 -8.72656
rtoes -36.2291
lfemur -26.1085 -10.8363 -15.3329
ltibia 28.0055
lfoot -21.2343 5.75773
ltoes -32.7368
345
root -0.721465 17.7835 20.0314 -157.679 4.04672 184.517
lowerback -21.306 -3.96559 -8.67983
upperback 1.1177 -2.82844 -0.219179
thorax 13.7689 -1.83967 3.78535
lowerneck -2.7554 0.631837 -3.51231
upperneck 8.59685 0.9495 3.53756
head 3.22653 0.56619 1.81545
rclavicle 5.1684e-015 4.92986e-014
rhumerus -41.1454 -10.0869 -79.7098
rradius 42.3873
rwrist -9.83481
rhand -9.62782 -51.2493
rfingers 7.12502
rthumb 16.342 -440.581
lclavicle 5.1684e-015 4.92986e-014
lhumerus -31.738 -1.58813 65.9129
lradius 27.9557
lwrist -1.24706
lhand -21.4073 -13.4022
lfingers 7.12502
lthumb 4.9811 16.5193
rfemur -53.3364 -7.25687 22.0316
rtibia 55.742
rfoot -27.6425 -8.92377
rtoes -35.9432
lfemur -25.8943 -10.7624 -14.9856
ltibia 28.2832
lfoot -21.5062 5.65097
ltoes -32.2014
346
root -0.698372 17.7758 20.0044 -157.682 3.73264 184.732
lowerback -21.2803 -4.04757 -8.68076
upperback 1.02383 -2.94265 -0.183074
thorax 13.6617 -1.88465 3.79226
lowerneck -2.70151 0.566516 -3.53549
upperneck 8.7682 0.851285 3.77638
head 3.28021 0.530092 1.89875
rclavicle 1.86858e-014 -6.36111e-014
rhumerus -41.4399 -10.1535 -79.6426
rradius 42.3216
rwrist -9.6265
rhand -9.67498 -51.5276
rfingers 7.12502
rthumb 16.2966 -440.863
lclavicle 1.86858e-014 -6.36111e-014
lhumerus -31.8405 -1.99612 65.732
lradius 28.2351
lwrist -1.18469
lhand -21.1632 -13.0071
lfingers 7.12502
lthumb 5.21681 16.9086
rfemur -53.9474 -7.66901 21.5643
rtibia 55.3285
rfoot -27.2729 -9.51803
rtoes -35.9067
lfemur -25.9879 -10.7142 -14.6277
ltibia 28.6639
lfoot -21.5392 5.48118
ltoes -32.5768
347
root -0.674049 17.766 19.9781 -157.744 3.50806 184.882
lowerback -21.2133 -4.11875 -8.81055
upperback 0.966138 -3.01538 -0.142819
thorax 13.5765 -1.92318 3.89133
lowerneck -2.71903 0.468105 -3.52138
upperneck 8.77023 0.716712 3.7876
head 3.29001 0.46398 1.89563
rclavicle -1.27222e-014 4.45278e-014
rhumerus -41.6863 -10.3164 -79.4723
rradius 42.2304
rwrist -9.52968
rhand -9.6231 -51.5515
rfingers 7.12502
rthumb 16.3466 -440.883
lclavicle -1.27222e-014 4.45278e-014
lhumerus -31.7885 -2.35703 65.5855
lradius 28.4044
lwrist -1.05987
lhand -21.5103 -13.4825
lfingers 7.12502
lthumb 4.88165 16.4413
rfemur -54.5045 -7.92562 20.8921
rtibia 54.8282
rfoot -26.4098 -10.1929
rtoes -35.7498
lfemur -25.9679 -10.6427 -14.3782
ltibia 28.9451
lfoot -21.6734 5.4548
ltoes -33.2129
348
root -0.649891 17.7545 19.937 -158.024 3.32097 185.135
lowerback -21.0903 -4.12299 -8.82873
upperback 1.00022 -3.03977 -0.100901
thorax 13.5529 -1.94088 3.94415
lowerneck -2.80489 0.379866 -3.41125
upperneck 8.79967 0.596774 3.72694
head 3.32094 0.405846 1.8528
rclavicle -5.48646e-014 -4.77083e-014
rhumerus -41.9818 -10.4102 -79.2911
rradius 42.222
rwrist -9.62295
rhand -9.50727 -51.3873
rfingers 7.12502
rthumb 16.4581 -440.709
lclavicle -5.48646e-014 -4.77083e-014
lhumerus -31.7041 -2.75489 65.4705
lradius 28.6074
lwrist -0.813642
lhand -21.5248 -13.4922
lfingers 7.12502
lthumb 4.86766 16.4319
rfemur -54.6535 -8.19026 20.1835
rtibia 54.1243
rfoot -25.521 -10.2174
rtoes -32.9687
lfemur -25.5696 -10.687 -14.0831
ltibia 29.07
lfoot -21.9013 5.60662
ltoes -33.7734
349
root -0.619581 17.7452 19.9036 -158.18 3.09928 185.446
lowerback -20.9414 -4.1605 -8.83925
upperback 0.956055 -3.11654 -0.0264913
thorax 13.4316 -1.97616 4.01571
lowerneck -2.82003 0.360292 -3.43505
upperneck 8.94542 0.566791 3.86048
head 3.37635 0.39888 1.90375
rclavicle -4.53229e-014 -1.27222e-014
rhumerus -42.2709 -10.2604 -79.238
rradius 42.1962
rwrist -9.59384
rhand -9.38594 -51.4987
rfingers 7.12502
rthumb 16.5749 -440.811
lclavicle -4.53229e-014 -1.27222e-014
lhumerus -31.7113 -3.15823 65.3432
lradius 28.8797
lwrist -0.495636
lhand -21.4865 -13.5849
lfingers 7.12502
lthumb 4.90464 16.3384
rfemur -54.8953 -8.37935 19.5617
rtibia 53.3202
rfoot -24.7157 -9.98673
rtoes -29.2146
lfemur -25.4802 -10.4093 -13.6593
ltibia 29.5017
lfoot -22.173 5.3263
ltoes -33.9231
350
root -0.591483 17.7403 19.879 -158.328 2.80621 185.71
lowerback -20.6659 -4.22962 -8.86077
upperback 0.877195 -3.24382 0.0355221
thorax 13.2045 -2.02966 4.06855
lowerneck -2.73995 0.342559 -3.55684
upperneck 9.11261 0.53616 4.12191
head 3.42237 0.394673 2.01507
rclavicle 2.26615e-014 1.74931e-014
rhumerus -42.4662 -10.1429 -79.2436
rradius 42.0023
rwrist -9.35942
rhand -9.52226 -51.8309
rfingers 7.12502
rthumb 16.4437 -441.154
lclavicle 2.26615e-014 1.74931e-014
lhumerus -31.7601 -3.53884 65.182
lradius 29.1337
lwrist -0.250466
lhand -21.5623 -14.102
lfingers 7.12502
lthumb 4.83138 15.8229
rfemur -55.1197 -8.5382 18.8227
rtibia 52.4084
rfoot -23.5206 -10.2858
rtoes -27.9377
lfemur -25.55 -10.2907 -13.2312
ltibia 30.1054
lfoot -22.4692 5.09838
ltoes -34.0828
351
root -0.561297 17.7307 19.848 -158.379 2.47995 186.06
lowerback -20.4685 -4.32027 -8.85242
upperback 0.711019 -3.40411 0.153875
thorax 12.928 -2.09207 4.15838
lowerneck -2.6681 0.372872 -3.64209
upperneck 9.41578 0.572883 4.38986
head 3.51438 0.429339 2.12782
rclavicle -1.19271e-014 -4.13472e-014
rhumerus -42.772 -10.1108 -79.1165
rradius 41.78
rwrist -9.07538
rhand -9.41961 -52.1651
rfingers 7.12502
rthumb 16.5425 -441.48
lclavicle -1.19271e-014 -4.13472e-014
lhumerus -32.0032 -3.98483 65.0508
lradius 29.4192
lwrist -0.0257442
lhand -21.8035 -15.2847
lfingers 7.12502
lthumb 4.59855 14.6454
rfemur -55.3916 -8.58495 18.1411
rtibia 51.4327
rfoot -21.8649 -10.8967
rtoes -27.9968
lfemur -25.6107 -10.3859 -12.6594
ltibia 30.5023
lfoot -22.6559 4.94854
ltoes -33.3632
352
root -0.535627 17.715 19.797 -158.483 2.25913 186.444
lowerback -21.0738 -4.32534 -8.60263
upperback 0.937162 -3.40391 0.121176
thorax 13.521 -2.10034 3.94766
lowerneck -2.73958 0.365126 -3.57036
upperneck 9.54654 0.54062 4.69482
head 3.57686 0.433413 2.22113
rclavicle 9.14409e-015 3.33958e-014
rhumerus -42.695 -10.4688 -79.0838
rradius 41.6109
rwrist -8.64112
rhand -8.69742 -52.6462
rfingers 7.12502
rthumb 17.2377 -441.902
lclavicle 9.14409e-015 3.33958e-014
lhumerus -31.6594 -4.47978 64.8061
lradius 29.6721
lwrist 0.292847
lhand -21.5898 -15.1832
lfingers 7.12502
lthumb 4.8049 14.7423
rfemur -55.4916 -8.70562 17.4416
rtibia 50.3347
rfoot -20.5303 -11.2829
rtoes -27.6449
lfemur -25.3702 -10.5607 -12.1581
ltibia 30.6801
lfoot -22.9178 4.89431
ltoes -32.683
353
root -0.50721 17.7028 19.7528 -158.601 2.04405 186.805
lowerback -21.0006 -4.31732 -8.56838
upperback 0.786548 -3.42209 0.217635
thorax 13.3086 -2.09741 4.0405
lowerneck -2.52491 0.24052 -3.69767
upperneck 9.77961 0.36722 4.97853
head 3.62851 0.362648 2.33746
rclavicle 1.63003e-014 5.56597e-014
rhumerus -43.3213 -10.4399 -78.8259
rradius 41.6532
rwrist -8.62907
rhand -8.43096 -52.9452
rfingers 7.12502
rthumb 17.4941 -442.178
lclavicle 1.63003e-014 5.56597e-014
lhumerus -31.7583 -5.0241 64.8267
lradius 30.1013
lwrist 0.837583
lhand -21.135 -14.2243
lfingers 7.12502
lthumb 5.24397 15.6908
rfemur -55.482 -8.86592 16.723
rtibia 49.107
rfoot -19.5466 -11.5946
rtoes -26.4048
lfemur -25.1796 -10.5905 -11.6823
ltibia 31.0095
lfoot -23.1728 4.81029
ltoes -32.8786
354
root -0.472273 17.6985 19.7098 -159.048 1.50152 187.024
lowerback -20.6277 -4.41372 -8.73324
upperback 0.831132 -3.56299 0.280574
thorax 13.1839 -2.17871 4.17075
lowerneck -2.52404 0.137929 -3.68159
upperneck 9.93536 0.223373 5.10739
head 3.69152 0.302555 2.37696
rclavicle 1.90833e-014 -2.06736e-014
rhumerus -43.6409 -10.4187 -78.7523
rradius 41.4915
rwrist -8.75906
rhand -8.67837 -52.6078
rfingers 7.12502
rthumb 17.256 -441.862
lclavicle 1.90833e-014 -2.06736e-014
lhumerus -31.6856 -5.53166 64.7401
lradius 30.7517
lwrist 1.88661
lhand -20.4569 -13.1582
lfingers 7.12502
lthumb 5.8987 16.7397
rfemur -54.8333 -9.16403 15.7852
rtibia 47.5115
rfoot -18.5067 -12.2735
rtoes -25.8462
lfemur -24.7587 -10.8639 -11.2779
ltibia 31.3757
lfoot -23.3583 4.521
ltoes -32.4059
355
root -0.434474 17.6983 19.6486 -159.989 0.504007 186.849
lowerback -19.8587 -4.7232 -9.4256
upperback 1.05074 -3.9114 0.360536
thorax 13.1133 -2.40656 4.56048
lowerneck -2.59015 0.138043 -3.70933
upperneck 10.0708 0.229237 5.11037
head 3.75205 0.30838 2.38722
rclavicle 5.96354e-015 1.59028e-014
rhumerus -43.8178 -10.5249 -78.4899
rradius 41.1625
rwrist -8.72094
rhand -8.75111 -52.1157
rfingers 7.12502
rthumb 17.186 -441.376
lclavicle 5.96354e-015 1.59028e-014
lhumerus -31.7545 -6.17177 64.9046
lradius 30.9918
lwrist 1.67149
lhand -21.1271 -13.463
lfingers 7.12502
lthumb 5.25159 16.4519
rfemur -53.2257 -9.92588 14.3339
rtibia 45.5355
rfoot -18.0665 -12.9665
rtoes -24.9147
lfemur -23.7448 -11.6888 -11.3167
ltibia 31.5525
lfoot -23.592 4.12292
ltoes -32.164
356
root -0.402845 17.6842 19.6027 -160.12 0.361576 187.044
lowerback -20.0692 -4.71095 -9.43954
upperback 1.12 -3.85287 0.282618
thorax 13.3019 -2.38395 4.48723
lowerneck -2.62593 0.0534563 -3.65928
upperneck 10.2112 0.0990021 5.34846
head 3.81741 0.26199 2.45894
rclavicle 5.04913e-014 1.47896e-013
rhumerus -43.9186 -10.8437 -78.4678
rradius 40.8807
rwrist -8.5728
rhand -8.83608 -52.0101
rfingers 7.12502
rthumb 17.1042 -441.277
lclavicle 5.04913e-014 1.47896e-013
lhumerus -31.618 -6.79762 64.711
lradius 31.3372
lwrist 1.4375
lhand -21.488 -13.4845
lfingers 7.12502
lthumb 4.90317 16.4388
rfemur -53.1208 -10.0564 13.4002
rtibia 44.3134
rfoot -18.0344 -12.9522
rtoes -23.6938
lfemur -23.6258 -11.6783 -11.0573
ltibia 31.9922
lfoot -23.965 4.11226
ltoes -32.5176
357
root -0.366663 17.6723 19.5611 -160.235 0.0535608 187.388
lowerback -20.0681 -4.72938 -9.38497
upperback 1.08239 -3.89504 0.314618
thorax 13.262 -2.3977 4.48028
lowerneck -2.64584 -0.0571146 -3.64352
upperneck 10.3127 -0.0522596 5.39534
head 3.86584 0.193033 2.469
rclavicle -2.0276e-014 2.8625e-014
rhumerus -44.2097 -10.9175 -78.4449
rradius 40.7412
rwrist -8.49754
rhand -8.985 -52.3919
rfingers 7.12502
rthumb 16.9609 -441.671
lclavicle -2.0276e-014 2.8625e-014
lhumerus -31.6257 -7.33952 64.5307
lradius 31.9971
lwrist 1.11769
lhand -21.6448 -12.2277
lfingers 7.12502
lthumb 4.75174 17.699
rfemur -52.9947 -10.2097 12.6519
rtibia 43.0746
rfoot -17.7964 -13.0789
rtoes -22.5729
lfemur -23.7024 -11.6682 -10.5387
ltibia 32.6415
lfoot -24.3046 4.27248
ltoes -34.1435
